# xmcd CD database file
# Generated: Don Jan 2 18:06:09 2003 by KSCD
# 
# Track frame offsets:
#       150
#       19082
#       31505
#       54255
#       66416
#       81200
#       95882
#       134792
#       149296
#       162770
#
# Disc length: 2470 seconds
#
# Revision: 2
# Processed by: cddbd v1.4PL0 Copyright (c) Steve Scherf et al.
# Submitted via: Kscd 1.3.3
#
DISCID=8609a40a
DTITLE=Dete Kuhlmann - Don`t play with my Heart (Blues and Ballads)
DYEAR=1900
DGENRE=
TTITLE0=Georgia on my Mind
TTITLE1=The Key to my Heart
TTITLE2=Don`t play with my Heart 
TTITLE3=People get Ready
TTITLE4=A helping Hand
TTITLE5=Just Do it
TTITLE6=A Telephone Operator Lovestory
TTITLE7=No One like You
TTITLE8=These of a Child
TTITLE9=Sunny
EXTD=
EXTT0=
EXTT1=
EXTT2=
EXTT3=
EXTT4=
EXTT5=
EXTT6=
EXTT7=
EXTT8=
EXTT9=
PLAYORDER=
